<svg xmlns="http://www.w3.org/2000/svg" width="409.80489" height="69.42889" viewBox="0 0 409.80489 69.42889"><g style="isolation:isolate"><path d="M107.11422,47.39559a.27112.27112,0,0,1-.08.07l-16.9,8.76-1.99,1.18-11.44,8.65-5.63-3.86v-5.26l3.66,2.52,2.08,1.42,7.31-5.03,1.81-1.25,1.86-1.28,1.99-1.19,12.95-7.01,4.99-2.7a.39506.39506,0,0,0,.06-.64C108.80416,42.5356,107.77419,46.7256,107.11422,47.39559Z" transform="translate(0 -28.64668)" style="fill:#333;stroke:#000;stroke-miterlimit:10"/><path d="M107.7242,42.41561l-4.99,2.7-12.95,7.01-1.99,1.19-1.86,1.28-1.81,1.25-7.31,5.03-2.08-1.42-3.66-2.52,11.66-5.63,2.05-1.17,16.88-10.6a.33674.33674,0,0,1,.17-.05.3212.3212,0,0,1,.17.02l5.66,2.2a.74771.74771,0,0,1,.12.07A.39506.39506,0,0,1,107.7242,42.41561Z" transform="translate(0 -28.64668)" style="fill:#4d4d4d;stroke:#000;stroke-miterlimit:10"/><path d="M80.67422,69.05556c0,.16-.01.32-.01.49-.02.3-.06.62006-.11005.96-.02.15-.05.31-.08.48-.6,2.81-2.5,5.44-5.41,7.75-2.47-7.88995-16.78-13.94995-34.08-13.94995-17.29,0-31.61,6.06-34.08,13.95-2.9-2.31994-4.8-4.94-5.4-7.75-.03-.17-.06-.32995-.07995-.48-.05005-.34-.09-.66-.11-.96,0-.17-.01-.33-.01-.49,0-10.43,17.76-18.88,39.68-18.88S80.67422,58.62557,80.67422,69.05556Z" transform="translate(0 -28.64668)" style="fill:#333;stroke:#000;stroke-miterlimit:10"/><path d="M75.06417,78.73555c-6.93,5.51-19.6,9.2-34.08,9.2-14.48,0-27.15-3.69-34.08-9.2,2.47-7.88995,16.79-13.94995,34.08-13.94995C58.2842,64.7856,72.5942,70.8456,75.06417,78.73555Z" transform="translate(0 -28.64668)" style="fill:#4d4d4d;stroke:#000;stroke-miterlimit:10"/><path d="M80.4742,70.98555c-.96,5.33-5.2,13.87-7.33,16.1-4.99,6.14-17.5,10.49-32.16,10.49-14.65,0-27.17-4.35-32.16-10.49-2.12-2.23-6.36-10.77-7.32-16.1.6,2.81,2.5,5.43006,5.4,7.75,6.93,5.51,19.6,9.2,34.08,9.2,14.48,0,27.15-3.69,34.08-9.2C77.9742,76.42555,79.87417,73.79555,80.4742,70.98555Z" transform="translate(0 -28.64668)" style="fill:#333;stroke:#000;stroke-miterlimit:10"/><ellipse cx="40.91815" cy="43.16555" rx="20.87688" ry="10.88376" style="fill:#333;mix-blend-mode:overlay;opacity:0.68"/><polygon points="1 19.56 12.598 26.256 12.598 12.863 1 19.56" style="fill:#ff9a02;stroke:#000;stroke-linecap:round;stroke-linejoin:round;stroke-width:2px"/><path d="M40.78374,52.71719H62.56409c0,14.00671-9.832,25.53248-21.78035,25.53248S19.00339,66.7239,19.00339,52.71719Z" transform="translate(0 -28.64668)" style="fill:#fed604;stroke:#000;stroke-linecap:round;stroke-linejoin:round;stroke-width:2px"/><path d="M44.21222,48.20626c0,9.54192-7.73525,15.31933-17.27717,15.31933S9.65788,57.74818,9.65788,48.20626a17.27717,17.27717,0,1,1,34.55434,0Z" transform="translate(0 -28.64668)" style="fill:#fed604;stroke:#000;stroke-linecap:round;stroke-linejoin:round;stroke-width:2px"/><line x1="31.92825" y1="14.15771" x2="21.91415" y2="22.96143" style="fill:#fed604;stroke:#000;stroke-linecap:round;stroke-linejoin:round;stroke-width:2px"/><line x1="21.91415" y1="14.15771" x2="31.92825" y2="22.96143" style="fill:#fed604;stroke:#000;stroke-linecap:round;stroke-linejoin:round;stroke-width:2px"/><path d="M147.82149,59.60567l22.04883-25.37891h14.75977L159.25118,61.94551l26.72852,32.3086H170.50118l-21.3291-26.90918-1.35059,1.35058v25.5586H136.12228V34.22676h11.69921Z" transform="translate(0 -28.64668)"/><path d="M197.23067,32.24629a6.56983,6.56983,0,1,1-6.57031,6.57032A6.60643,6.60643,0,0,1,197.23067,32.24629Zm5.48926,23.03907V94.25411H191.74044V55.28536Z" transform="translate(0 -28.64668)"/><path d="M227.469,64.64571v29.6084h-10.9795V64.64571h-4.31933V55.28536h4.31933V41.966H227.469V55.28536h7.55957v9.36035Z" transform="translate(0 -28.64668)"/><path d="M271.29708,67.16524a12.6599,12.6599,0,0,0-9-3.41992c-7.28906,0-10.97949,5.30957-10.97949,10.97949,0,6.38965,4.77051,11.06934,11.33984,11.06934a12.713,12.713,0,0,0,8.63965-3.41993v10.71a22.25407,22.25407,0,0,1-10.0791,2.42969A21.99653,21.99653,0,0,1,246.18771,89.844a20.00949,20.00949,0,0,1-6.209-14.93945,20.08653,20.08653,0,0,1,20.78906-20.87891,23.25564,23.25564,0,0,1,10.5293,2.33984Z" transform="translate(0 -28.64668)"/><path d="M280.65841,28.64668H291.6379V60.3254a14.31145,14.31145,0,0,1,12.05957-6.29981c3.41992,0,8.46.99024,11.51953,4.76953,2.7002,3.33008,3.05957,7.2002,3.05957,10.97949v24.4795H307.29708V73.01485c0-2.16016-.08984-5.58008-2.06934-7.64942a7.03125,7.03125,0,0,0-5.12988-1.98046,7.48714,7.48714,0,0,0-6.75,3.41992,13.41019,13.41019,0,0,0-1.71,7.55957V94.25411H280.65841Z" transform="translate(0 -28.64668)"/><path d="M365.25606,83.36446c-1.16992,2.87988-5.5791,12.14941-19.16894,12.14941-6.29981,0-11.06934-1.7998-14.93945-5.48926-4.31934-4.0498-6.11914-9.08984-6.11914-15.21,0-7.73925,3.14941-12.50879,5.93945-15.29882,4.58984-4.5,9.98926-5.49024,14.66894-5.49024,7.91993,0,12.50977,3.15039,15.21,6.38965,4.13964,4.95019,4.67968,11.06934,4.67968,15.2998v.89942H336.36739a11.49508,11.49508,0,0,0,1.89063,6.57031,9.2748,9.2748,0,0,0,7.8291,3.68945,10.04661,10.04661,0,0,0,9.08984-5.12988ZM355.177,69.59493a9.349,9.349,0,0,0-18.44922,0Z" transform="translate(0 -28.64668)"/><path d="M372.18673,55.28536h10.97949v5.04a14.31145,14.31145,0,0,1,12.05957-6.29981c3.41992,0,8.46.99024,11.51953,4.76953,2.7002,3.33008,3.05957,7.2002,3.05957,10.97949v24.4795H398.8254V73.01485c0-2.16016-.08984-5.58008-2.06934-7.64942a7.03125,7.03125,0,0,0-5.12988-1.98046,7.48714,7.48714,0,0,0-6.75,3.41992,13.41019,13.41019,0,0,0-1.71,7.55957V94.25411H372.18673Z" transform="translate(0 -28.64668)"/></g></svg>